<mxfile host="app.diagrams.net" modified="2024-05-09T06:59:43.686Z" agent="Mozilla/5.0 (Windows NT 10.0; Win64; x64) AppleWebKit/537.36 (KHTML, like Gecko) Chrome/124.0.0.0 Safari/537.36" etag="n6_trnQ0SXQ6F-j-tdv3" version="24.3.1" type="github">
  <diagram name="第 1 页" id="KUaCnSwi1LHXbk4u1nrY">
    <mxGraphModel dx="1750" dy="870" grid="0" gridSize="10" guides="1" tooltips="1" connect="1" arrows="1" fold="1" page="1" pageScale="1" pageWidth="827" pageHeight="1169" math="0" shadow="0">
      <root>
        <mxCell id="0" />
        <mxCell id="1" parent="0" />
        <mxCell id="LY-4_gos5T7Q-CrJYwD3-1" value="&lt;font data-sider-select-id=&quot;64f25eec-3b00-4891-acad-26ac1c2e392d&quot; style=&quot;font-size: 23px;&quot;&gt;A&lt;/font&gt;" style="rounded=1;whiteSpace=wrap;html=1;" vertex="1" parent="1">
          <mxGeometry x="250" y="160" width="120" height="60" as="geometry" />
        </mxCell>
        <mxCell id="LY-4_gos5T7Q-CrJYwD3-2" value="&lt;font data-sider-select-id=&quot;64f25eec-3b00-4891-acad-26ac1c2e392d&quot; style=&quot;font-size: 23px;&quot;&gt;B&lt;/font&gt;" style="rounded=1;whiteSpace=wrap;html=1;" vertex="1" parent="1">
          <mxGeometry x="130" y="340" width="120" height="60" as="geometry" />
        </mxCell>
        <mxCell id="LY-4_gos5T7Q-CrJYwD3-4" value="&lt;font data-sider-select-id=&quot;64f25eec-3b00-4891-acad-26ac1c2e392d&quot; style=&quot;font-size: 23px;&quot;&gt;C&lt;/font&gt;" style="rounded=1;whiteSpace=wrap;html=1;" vertex="1" parent="1">
          <mxGeometry x="370" y="340" width="120" height="60" as="geometry" />
        </mxCell>
        <mxCell id="LY-4_gos5T7Q-CrJYwD3-5" value="&lt;font data-sider-select-id=&quot;64f25eec-3b00-4891-acad-26ac1c2e392d&quot; style=&quot;font-size: 23px;&quot;&gt;D&lt;/font&gt;" style="rounded=1;whiteSpace=wrap;html=1;" vertex="1" parent="1">
          <mxGeometry x="10" y="525" width="120" height="60" as="geometry" />
        </mxCell>
        <mxCell id="LY-4_gos5T7Q-CrJYwD3-6" value="&lt;font data-sider-select-id=&quot;64f25eec-3b00-4891-acad-26ac1c2e392d&quot; style=&quot;font-size: 23px;&quot;&gt;G&lt;/font&gt;" style="rounded=1;whiteSpace=wrap;html=1;" vertex="1" parent="1">
          <mxGeometry x="250" y="680" width="120" height="60" as="geometry" />
        </mxCell>
        <mxCell id="LY-4_gos5T7Q-CrJYwD3-7" value="&lt;font data-sider-select-id=&quot;64f25eec-3b00-4891-acad-26ac1c2e392d&quot; style=&quot;font-size: 23px;&quot;&gt;F&lt;/font&gt;" style="rounded=1;whiteSpace=wrap;html=1;" vertex="1" parent="1">
          <mxGeometry x="10" y="680" width="120" height="60" as="geometry" />
        </mxCell>
        <mxCell id="LY-4_gos5T7Q-CrJYwD3-8" value="&lt;font data-sider-select-id=&quot;64f25eec-3b00-4891-acad-26ac1c2e392d&quot; style=&quot;font-size: 23px;&quot;&gt;E&lt;/font&gt;" style="rounded=1;whiteSpace=wrap;html=1;" vertex="1" parent="1">
          <mxGeometry x="240" y="525" width="120" height="60" as="geometry" />
        </mxCell>
        <mxCell id="LY-4_gos5T7Q-CrJYwD3-9" value="" style="endArrow=classic;html=1;rounded=0;exitX=0.5;exitY=0;exitDx=0;exitDy=0;" edge="1" parent="1" source="LY-4_gos5T7Q-CrJYwD3-2">
          <mxGeometry width="50" height="50" relative="1" as="geometry">
            <mxPoint x="260" y="270" as="sourcePoint" />
            <mxPoint x="310" y="220" as="targetPoint" />
          </mxGeometry>
        </mxCell>
        <mxCell id="LY-4_gos5T7Q-CrJYwD3-10" value="" style="endArrow=classic;html=1;rounded=0;exitX=0.5;exitY=0;exitDx=0;exitDy=0;" edge="1" parent="1" source="LY-4_gos5T7Q-CrJYwD3-4">
          <mxGeometry width="50" height="50" relative="1" as="geometry">
            <mxPoint x="320" y="300" as="sourcePoint" />
            <mxPoint x="310" y="230" as="targetPoint" />
          </mxGeometry>
        </mxCell>
        <mxCell id="LY-4_gos5T7Q-CrJYwD3-13" value="" style="endArrow=classic;html=1;rounded=0;entryX=0.5;entryY=1;entryDx=0;entryDy=0;" edge="1" parent="1" target="LY-4_gos5T7Q-CrJYwD3-2">
          <mxGeometry width="50" height="50" relative="1" as="geometry">
            <mxPoint x="70" y="520" as="sourcePoint" />
            <mxPoint x="120" y="470" as="targetPoint" />
          </mxGeometry>
        </mxCell>
        <mxCell id="LY-4_gos5T7Q-CrJYwD3-14" value="" style="endArrow=classic;html=1;rounded=0;entryX=0.5;entryY=1;entryDx=0;entryDy=0;" edge="1" parent="1" target="LY-4_gos5T7Q-CrJYwD3-2">
          <mxGeometry width="50" height="50" relative="1" as="geometry">
            <mxPoint x="300" y="520" as="sourcePoint" />
            <mxPoint x="310" y="330" as="targetPoint" />
          </mxGeometry>
        </mxCell>
        <mxCell id="LY-4_gos5T7Q-CrJYwD3-15" value="" style="endArrow=classic;html=1;rounded=0;entryX=0.5;entryY=1;entryDx=0;entryDy=0;exitX=0.5;exitY=0;exitDx=0;exitDy=0;" edge="1" parent="1" source="LY-4_gos5T7Q-CrJYwD3-7" target="LY-4_gos5T7Q-CrJYwD3-5">
          <mxGeometry width="50" height="50" relative="1" as="geometry">
            <mxPoint x="40" y="650" as="sourcePoint" />
            <mxPoint x="90" y="600" as="targetPoint" />
          </mxGeometry>
        </mxCell>
        <mxCell id="LY-4_gos5T7Q-CrJYwD3-17" value="" style="endArrow=classic;html=1;rounded=0;exitX=0.5;exitY=0;exitDx=0;exitDy=0;" edge="1" parent="1" source="LY-4_gos5T7Q-CrJYwD3-6">
          <mxGeometry width="50" height="50" relative="1" as="geometry">
            <mxPoint x="390" y="650" as="sourcePoint" />
            <mxPoint x="310" y="590" as="targetPoint" />
          </mxGeometry>
        </mxCell>
      </root>
    </mxGraphModel>
  </diagram>
</mxfile>
